<?xml version="1.0" encoding="utf-8"?>
<!-- Generator: Adobe Illustrator 26.4.1, SVG Export Plug-In . SVG Version: 6.00 Build 0)  -->
<svg version="1.1" id="Capa_1" xmlns="http://www.w3.org/2000/svg" xmlns:xlink="http://www.w3.org/1999/xlink" x="0px" y="0px"
	 viewBox="0 0 180 180" style="enable-background:new 0 0 180 180;" xml:space="preserve">
<style type="text/css">
	.st0{fill:#1B2341;}
	.st1{fill:#BB9E4D;}
</style>
<rect x="0.09" y="-0.1" class="st0" width="179.82" height="180"/>
<path class="st1" d="M13.95,124.05c6.03-5.03,12.06-10.06,18.1-15.08C40.37,102.06,48.72,95.2,57,88.24
	c1.23-1.03,2.01-0.97,3.15,0.04c2.51,2.22,5.12,4.31,7.82,6.57c10.43-11.15,20.8-22.22,31.31-33.45
	c24.69,20.98,49.21,41.81,73.73,62.64c-0.05,0.14-0.1,0.29-0.15,0.43c-3.04,0-6.12-0.27-9.13,0.06c-5.05,0.56-8.79-1.22-12.62-4.57
	c-15.47-13.52-31.25-26.7-46.91-40c-1.43-1.21-2.89-2.39-4.53-3.74c-15.31,16.06-30.56,32.07-45.92,48.18
	c-1.84-1.47-3.64-2.91-5.57-4.46c3.98-5.66,7.86-11.18,11.83-16.84c-0.74-0.49-1.47-0.97-2.34-1.55c-0.92,0.75-1.84,1.49-2.75,2.25
	c-7.84,6.51-15.69,13-23.51,19.54c-0.97,0.81-1.95,1.16-3.24,1.13c-4.71-0.09-9.41-0.03-14.12-0.03
	C14.02,124.31,13.99,124.18,13.95,124.05z"/>
</svg>
